<?xml version="1.0" encoding="UTF-8" standalone="no"?> <svg id="Layer_1" data-name="Layer 1" xmlns="http://www.w3.org/2000/svg" viewBox="0 0 128 128"><defs><style>.cls-1{fill:#1d75b8;}.cls-2{fill:#2d3e50;}</style></defs><title>n</title><path class="cls-1" d="M81.434,62.1173A15.49221,15.49221,0,1,0,96.92928,77.60644,15.48952,15.48952,0,0,0,81.434,62.1173Zm5.06042,19.73693a3.27583,3.27583,0,0,1-.6464,1.1697,3.88664,3.88664,0,0,1-1.1697.9296,5.81851,5.81851,0,0,1-1.77913.5602V87.1363H80.18428v-2.561a9.909,9.909,0,0,1-2.5487-.48637,13.51409,13.51409,0,0,1-1.45287-.591l.92344-2.47482a10.87163,10.87163,0,0,0,1.79765.66489,7.857,7.857,0,0,0,2.21007.30165,3.27381,3.27381,0,0,0,1.79761-.35091,1.18052,1.18052,0,0,0,.48021-1.00347,1.24881,1.24881,0,0,0-.19084-.70182,1.84739,1.84739,0,0,0-.56024-.52327,5.81656,5.81656,0,0,0-.92344-.46788q-.56328-.22162-1.2928-.48021c-.474-.17236-.93576-.3632-1.39132-.57253a5.62555,5.62555,0,0,1-1.22509-.76337,3.39388,3.39388,0,0,1-.8865-1.10812A3.49813,3.49813,0,0,1,76.589,74.4298a4.59139,4.59139,0,0,1,.20313-1.36667,3.65894,3.65894,0,0,1,.63411-1.19431,3.78267,3.78267,0,0,1,1.12044-.91728,5.68682,5.68682,0,0,1,1.63755-.54792V68.07654H82.8992v2.24088a11.76758,11.76758,0,0,1,1.92691.3263,7.65757,7.65757,0,0,1,1.28047.43091l-.66485,2.58563a9.50282,9.50282,0,0,0-1.64991-.5171,8.51328,8.51328,0,0,0-1.97-.21549,2.44965,2.44965,0,0,0-1.48368.34475,1.07862,1.07862,0,0,0-.45556.89883,1.20675,1.20675,0,0,0,.14158.59714,1.30823,1.30823,0,0,0,.44327.43711,4.79936,4.79936,0,0,0,.73876.38168c.29549.12313.65256.25243,1.07118.40017a16.51343,16.51343,0,0,1,1.75452.751,6.74575,6.74575,0,0,1,1.39748.93576,3.88124,3.88124,0,0,1,.92344,1.24357,3.75168,3.75168,0,0,1,.33859,1.656A4.37022,4.37022,0,0,1,86.49443,81.85423Z"/><path class="cls-2" d="M69.50857,63.1975,58.83065,52.69483a11.10346,11.10346,0,1,0-18.60108,0L19.11282,74.1186a11.11743,11.11743,0,1,0,3.24548,3.24447L43.475,55.93929a11.06574,11.06574,0,0,0,12.11117,0L66.35887,66.53782A18.811,18.811,0,0,1,69.50857,63.1975Z"/><path class="cls-2" d="M114.94127,33.47736a11.09522,11.09522,0,0,0-9.29957,17.15953L93.20551,63.07309a18.82157,18.82157,0,0,1,3.18814,3.30181l12.49353-12.49353a11.10091,11.10091,0,1,0,6.05408-20.404Z"/></svg>